<svg xmlns="http://www.w3.org/2000/svg" version="1.1" xmlns:xlink="http://www.w3.org/1999/xlink" xmlns:svgjs="http://svgjs.dev/svgjs" width="1000" height="1004" viewBox="0 0 1000 1004"><g transform="matrix(1,0,0,1,-0.48076418549982236,0.407228342622318)"><svg viewBox="0 0 246 247" data-background-color="#ffffff" preserveAspectRatio="xMidYMid meet" height="1004" width="1000" xmlns="http://www.w3.org/2000/svg" xmlns:xlink="http://www.w3.org/1999/xlink"><g id="tight-bounds" transform="matrix(1,0,0,1,0.1182679896329546,-0.09997365579206985)"><svg viewBox="0 0 245.7632916007533 247.2" height="247.2" width="245.7632916007533"><g><svg viewBox="0 0 245.7632916007533 247.2" height="247.2" width="245.7632916007533"><g><svg viewBox="0 0 245.7632916007533 247.2" height="247.2" width="245.7632916007533"><g id="textblocktransform"><svg viewBox="0 0 245.7632916007533 247.2" height="247.2" width="245.7632916007533" id="textblock"><g><svg viewBox="0 0 245.7632916007533 247.2" height="247.2" width="245.7632916007533"><path d="M245.188 53.02C244.033 27.36 240.74 20.227 240.74 20.227 230.63-6.202 218.013-0.506 206.679 3.292 186.668 3.446 166.737 9.091 146.772 12.119 104.866 12.581 62.602 4.986 20.904 23.717 16.988 29.464-4.064 24.846 0.697 56.304 1.945 69.39 6.497 83.913 6.358 95.922 6.982 98.026 7.849 93.202 8.218 96.23 9.512 104.39 11.627 100.541 13.36 105.365 10.945 118.246 12.678 128.971 14.33 140.21 11.419 143.135 7.687 141.749 6.011 151.449 5.838 158.479 4.902 157.145 3.874 156.837 3.123 156.632 1.609 157.402 1.864 159.608 2.73 167.152-0.99 171.514 1.344 178.904-0.262 186.91 2.453 193.838 2.083 202.511 2.037 204.255 2.291 205.744 2.696 206.154 4.486 208.361 1.875 212.672 2.152 217.342 20.523 249.262 40.454 227.195 59.275 241.872 64.162 231.608 60.488 245.516 62.441 243.36 63.966 240.846 65.075 251.263 66.796 245.362 67.062 243.668 66.658 239.665 67.605 240.435 68.102 240.846 68.541 240.743 68.61 238.382 68.714 234.841 67.801 237.048 67.559 235.201 70.182 225.861 69.535 248.081 71.996 247.158 71.88 244.438 71.164 240.538 72.631 241.051 74.087 237.151 74.133 233.918 75.427 242.693 75.473 244.592 75.704 245.926 76.074 246.85 80.118 237.305 84.139 250.237 88.379 245.926 90.979 241.205 93.474 248.492 96.108 246.696 97.033 245.259 97.969 242.693 98.858 247.004 109.754 247.928 121.365 244.079 131.694 247.158 159.297 241.41 188.794 249.518 217.898 241.923 224.761 238.998 231.889 234.841 238.579 231.506 238.579 231.506 243.998 222.371 243.998 181.316S245.153 145.393 245.327 112.703C245.5 80.013 246.309 78.679 245.153 53.02Z" opacity="1" fill="#2979ff" data-fill-palette-color="tertiary"></path><g transform="matrix(1,0,0,1,55.76832,26.230666666666668)"><svg width="134.22665160075329" viewBox="0.8500000238418579 -36.95000076293945 30.5 44.25" height="194.73866666666666" data-palette-color="#ffffff"><path d="M23.8-36.95L23.8-36.95Q25.7-36.95 27.75-36.25 29.8-35.55 31.35-34.45L31.35-34.45Q30.85-31.9 30.43-29.85 30-27.8 29.65-26.13 29.3-24.45 28.98-23.08 28.65-21.7 28.35-20.5L28.35-20.5Q27.15-16 25.88-12.38 24.6-8.75 23.18-5.85 21.75-2.95 20.18-0.7 18.6 1.55 16.8 3.25L16.8 3.25Q15.05 4.9 13.3 5.95 11.55 7 10.05 7.3L10.05 7.3Q8.05 7.3 6.35 6.85 4.65 6.4 3.43 5.63 2.2 4.85 1.53 3.78 0.85 2.7 0.85 1.4L0.85 1.4Q0.85 0 1.55-2.13 2.25-4.25 3.7-7.15L3.7-7.15Q4.3-7.1 5.1-6.85 5.9-6.6 6.7-6.25 7.5-5.9 8.15-5.48 8.8-5.05 9.1-4.65L9.1-4.65Q7.5-3 6.5-1.03 5.5 0.95 5.5 2.4L5.5 2.4Q5.5 3.25 5.83 3.93 6.15 4.6 6.95 5.15L6.95 5.15Q10 4 12.9 0.88 15.8-2.25 18.05-6.9L18.05-6.9Q19.4-9.65 20.5-13.2 21.6-16.75 22.38-20.33 23.15-23.9 23.58-27.18 24-30.45 24-32.7L24-32.7Q24-33.05 23.98-33.68 23.95-34.3 23.93-34.98 23.9-35.65 23.85-36.2 23.8-36.75 23.8-36.95Z" opacity="1" transform="matrix(1,0,0,1,0,0)" fill="#ffffff" class="undefined-text-0" data-fill-palette-color="quaternary" id="text-0"></path></svg></g></svg></g></svg></g></svg></g><g></g></svg></g><defs></defs></svg><rect width="245.7632916007533" height="247.2" fill="none" stroke="none" visibility="hidden"></rect></g></svg></g></svg>